<mxfile host="Electron" modified="2024-02-13T23:42:23.252Z" agent="Mozilla/5.0 (Windows NT 10.0; Win64; x64) AppleWebKit/537.36 (KHTML, like Gecko) draw.io/22.1.21 Chrome/120.0.6099.109 Electron/28.1.0 Safari/537.36" etag="UqQ98FxOqe3csOxkZOOH" version="22.1.21" type="device">
  <diagram name="PÃ¡gina-1" id="XACVbwu0I52kNjb06wYC">
    <mxGraphModel dx="1069" dy="505" grid="1" gridSize="10" guides="1" tooltips="1" connect="1" arrows="1" fold="1" page="1" pageScale="1" pageWidth="827" pageHeight="1169" math="0" shadow="0">
      <root>
        <mxCell id="0" />
        <mxCell id="1" parent="0" />
        <mxCell id="DBbBezYdBG6-TNPYQ43t-125" value="" style="group;fillColor=#f5f5f5;fontColor=#333333;strokeColor=#666666;" vertex="1" connectable="0" parent="1">
          <mxGeometry x="130" y="460" width="405" height="600" as="geometry" />
        </mxCell>
        <mxCell id="DBbBezYdBG6-TNPYQ43t-21" value="" style="group" vertex="1" connectable="0" parent="DBbBezYdBG6-TNPYQ43t-125">
          <mxGeometry x="224" width="181" height="90" as="geometry" />
        </mxCell>
        <mxCell id="DBbBezYdBG6-TNPYQ43t-22" value="&lt;font color=&quot;#ff0000&quot;&gt;LD_XCOOR_REG&lt;br&gt;LD_YCOOR_REG&lt;/font&gt;" style="rounded=0;whiteSpace=wrap;html=1;" vertex="1" parent="DBbBezYdBG6-TNPYQ43t-21">
          <mxGeometry y="30" width="120" height="60" as="geometry" />
        </mxCell>
        <mxCell id="DBbBezYdBG6-TNPYQ43t-23" value="E_TRADUCCION1" style="text;html=1;align=center;verticalAlign=top;resizable=0;points=[];autosize=1;strokeColor=none;fillColor=none;fontStyle=1;fontColor=#9933FF;labelBackgroundColor=none;labelBorderColor=none;horizontal=1;fontFamily=Helvetica;" vertex="1" parent="DBbBezYdBG6-TNPYQ43t-21">
          <mxGeometry x="51" width="130" height="30" as="geometry" />
        </mxCell>
        <mxCell id="DBbBezYdBG6-TNPYQ43t-25" value="" style="group" vertex="1" connectable="0" parent="DBbBezYdBG6-TNPYQ43t-125">
          <mxGeometry x="224" y="110" width="181" height="90" as="geometry" />
        </mxCell>
        <mxCell id="DBbBezYdBG6-TNPYQ43t-26" value="&lt;font color=&quot;#0000ff&quot;&gt;DRAW_CUAD&lt;/font&gt;" style="rounded=0;whiteSpace=wrap;html=1;" vertex="1" parent="DBbBezYdBG6-TNPYQ43t-25">
          <mxGeometry y="30" width="120" height="60" as="geometry" />
        </mxCell>
        <mxCell id="DBbBezYdBG6-TNPYQ43t-27" value="E_DRAWCUAD" style="text;html=1;align=center;verticalAlign=top;resizable=0;points=[];autosize=1;strokeColor=none;fillColor=none;fontStyle=1;fontColor=#9933FF;labelBackgroundColor=none;labelBorderColor=none;horizontal=1;fontFamily=Helvetica;" vertex="1" parent="DBbBezYdBG6-TNPYQ43t-25">
          <mxGeometry x="61" width="110" height="30" as="geometry" />
        </mxCell>
        <mxCell id="DBbBezYdBG6-TNPYQ43t-29" style="edgeStyle=orthogonalEdgeStyle;rounded=0;orthogonalLoop=1;jettySize=auto;html=1;" edge="1" parent="DBbBezYdBG6-TNPYQ43t-125" source="DBbBezYdBG6-TNPYQ43t-22" target="DBbBezYdBG6-TNPYQ43t-26">
          <mxGeometry relative="1" as="geometry" />
        </mxCell>
        <mxCell id="DBbBezYdBG6-TNPYQ43t-32" style="edgeStyle=orthogonalEdgeStyle;rounded=0;orthogonalLoop=1;jettySize=auto;html=1;entryX=0;entryY=0.5;entryDx=0;entryDy=0;" edge="1" parent="DBbBezYdBG6-TNPYQ43t-125" source="DBbBezYdBG6-TNPYQ43t-30" target="DBbBezYdBG6-TNPYQ43t-26">
          <mxGeometry relative="1" as="geometry">
            <Array as="points">
              <mxPoint x="204" y="260" />
              <mxPoint x="204" y="170" />
            </Array>
          </mxGeometry>
        </mxCell>
        <mxCell id="DBbBezYdBG6-TNPYQ43t-30" value="&lt;b&gt;&lt;font color=&quot;#0000ff&quot;&gt;DONE_FIG&lt;/font&gt;&lt;/b&gt;" style="rhombus;whiteSpace=wrap;html=1;" vertex="1" parent="DBbBezYdBG6-TNPYQ43t-125">
          <mxGeometry x="244" y="220" width="80" height="80" as="geometry" />
        </mxCell>
        <mxCell id="DBbBezYdBG6-TNPYQ43t-31" style="edgeStyle=orthogonalEdgeStyle;rounded=0;orthogonalLoop=1;jettySize=auto;html=1;" edge="1" parent="DBbBezYdBG6-TNPYQ43t-125" source="DBbBezYdBG6-TNPYQ43t-26" target="DBbBezYdBG6-TNPYQ43t-30">
          <mxGeometry relative="1" as="geometry" />
        </mxCell>
        <mxCell id="DBbBezYdBG6-TNPYQ43t-33" value="" style="group" vertex="1" connectable="0" parent="DBbBezYdBG6-TNPYQ43t-125">
          <mxGeometry x="224" y="300" width="181" height="90" as="geometry" />
        </mxCell>
        <mxCell id="DBbBezYdBG6-TNPYQ43t-34" value="&lt;font color=&quot;#ff0000&quot;&gt;INCR_TXCOORX&lt;/font&gt;" style="rounded=0;whiteSpace=wrap;html=1;" vertex="1" parent="DBbBezYdBG6-TNPYQ43t-33">
          <mxGeometry y="30" width="120" height="60" as="geometry" />
        </mxCell>
        <mxCell id="DBbBezYdBG6-TNPYQ43t-35" value="E_INCR_ROW" style="text;html=1;align=center;verticalAlign=top;resizable=0;points=[];autosize=1;strokeColor=none;fillColor=none;fontStyle=1;fontColor=#9933FF;labelBackgroundColor=none;labelBorderColor=none;horizontal=1;fontFamily=Helvetica;" vertex="1" parent="DBbBezYdBG6-TNPYQ43t-33">
          <mxGeometry x="66" width="100" height="30" as="geometry" />
        </mxCell>
        <mxCell id="DBbBezYdBG6-TNPYQ43t-62" value="1" style="text;html=1;align=center;verticalAlign=middle;resizable=0;points=[];autosize=1;strokeColor=none;fillColor=none;" vertex="1" parent="DBbBezYdBG6-TNPYQ43t-33">
          <mxGeometry x="30" y="-2" width="30" height="30" as="geometry" />
        </mxCell>
        <mxCell id="DBbBezYdBG6-TNPYQ43t-36" style="edgeStyle=orthogonalEdgeStyle;rounded=0;orthogonalLoop=1;jettySize=auto;html=1;" edge="1" parent="DBbBezYdBG6-TNPYQ43t-125" source="DBbBezYdBG6-TNPYQ43t-30" target="DBbBezYdBG6-TNPYQ43t-34">
          <mxGeometry relative="1" as="geometry" />
        </mxCell>
        <mxCell id="DBbBezYdBG6-TNPYQ43t-39" style="edgeStyle=orthogonalEdgeStyle;rounded=0;orthogonalLoop=1;jettySize=auto;html=1;entryX=0;entryY=0.5;entryDx=0;entryDy=0;" edge="1" parent="DBbBezYdBG6-TNPYQ43t-125" source="DBbBezYdBG6-TNPYQ43t-37" target="DBbBezYdBG6-TNPYQ43t-22">
          <mxGeometry relative="1" as="geometry">
            <Array as="points">
              <mxPoint x="180" y="460" />
              <mxPoint x="180" y="60" />
            </Array>
          </mxGeometry>
        </mxCell>
        <mxCell id="DBbBezYdBG6-TNPYQ43t-37" value="&lt;b&gt;&lt;font color=&quot;#00cc00&quot;&gt;END_X&lt;/font&gt;&lt;/b&gt;" style="rhombus;whiteSpace=wrap;html=1;" vertex="1" parent="DBbBezYdBG6-TNPYQ43t-125">
          <mxGeometry x="244" y="420" width="80" height="80" as="geometry" />
        </mxCell>
        <mxCell id="DBbBezYdBG6-TNPYQ43t-38" style="edgeStyle=orthogonalEdgeStyle;rounded=0;orthogonalLoop=1;jettySize=auto;html=1;" edge="1" parent="DBbBezYdBG6-TNPYQ43t-125" source="DBbBezYdBG6-TNPYQ43t-34" target="DBbBezYdBG6-TNPYQ43t-37">
          <mxGeometry relative="1" as="geometry" />
        </mxCell>
        <mxCell id="DBbBezYdBG6-TNPYQ43t-42" style="edgeStyle=orthogonalEdgeStyle;rounded=0;orthogonalLoop=1;jettySize=auto;html=1;" edge="1" parent="DBbBezYdBG6-TNPYQ43t-125" source="DBbBezYdBG6-TNPYQ43t-40">
          <mxGeometry relative="1" as="geometry">
            <mxPoint x="120" y="560.0000000000002" as="targetPoint" />
          </mxGeometry>
        </mxCell>
        <mxCell id="DBbBezYdBG6-TNPYQ43t-40" value="&lt;b&gt;&lt;font color=&quot;#00cc00&quot;&gt;END_Y&lt;/font&gt;&lt;/b&gt;" style="rhombus;whiteSpace=wrap;html=1;" vertex="1" parent="DBbBezYdBG6-TNPYQ43t-125">
          <mxGeometry x="244" y="520" width="80" height="80" as="geometry" />
        </mxCell>
        <mxCell id="DBbBezYdBG6-TNPYQ43t-41" style="edgeStyle=orthogonalEdgeStyle;rounded=0;orthogonalLoop=1;jettySize=auto;html=1;" edge="1" parent="DBbBezYdBG6-TNPYQ43t-125" source="DBbBezYdBG6-TNPYQ43t-37" target="DBbBezYdBG6-TNPYQ43t-40">
          <mxGeometry relative="1" as="geometry" />
        </mxCell>
        <mxCell id="DBbBezYdBG6-TNPYQ43t-43" value="" style="group" vertex="1" connectable="0" parent="DBbBezYdBG6-TNPYQ43t-125">
          <mxGeometry y="500" width="181" height="90" as="geometry" />
        </mxCell>
        <mxCell id="DBbBezYdBG6-TNPYQ43t-44" value="&lt;font color=&quot;#ff0000&quot;&gt;INCR_TYCOOR&lt;br&gt;CLR_TXCOOR&lt;/font&gt;" style="rounded=0;whiteSpace=wrap;html=1;" vertex="1" parent="DBbBezYdBG6-TNPYQ43t-43">
          <mxGeometry y="30" width="120" height="60" as="geometry" />
        </mxCell>
        <mxCell id="DBbBezYdBG6-TNPYQ43t-45" value="E_INCR_COL" style="text;html=1;align=center;verticalAlign=top;resizable=0;points=[];autosize=1;strokeColor=none;fillColor=none;fontStyle=1;fontColor=#9933FF;labelBackgroundColor=none;labelBorderColor=none;horizontal=1;fontFamily=Helvetica;" vertex="1" parent="DBbBezYdBG6-TNPYQ43t-43">
          <mxGeometry x="66" width="100" height="30" as="geometry" />
        </mxCell>
        <mxCell id="DBbBezYdBG6-TNPYQ43t-46" style="edgeStyle=orthogonalEdgeStyle;rounded=0;orthogonalLoop=1;jettySize=auto;html=1;entryX=0;entryY=0.25;entryDx=0;entryDy=0;" edge="1" parent="DBbBezYdBG6-TNPYQ43t-125" source="DBbBezYdBG6-TNPYQ43t-44" target="DBbBezYdBG6-TNPYQ43t-22">
          <mxGeometry relative="1" as="geometry">
            <Array as="points">
              <mxPoint x="60" y="45" />
            </Array>
          </mxGeometry>
        </mxCell>
        <mxCell id="DBbBezYdBG6-TNPYQ43t-63" value="0" style="text;html=1;align=center;verticalAlign=middle;resizable=0;points=[];autosize=1;strokeColor=none;fillColor=none;" vertex="1" parent="DBbBezYdBG6-TNPYQ43t-125">
          <mxGeometry x="214" y="230" width="30" height="30" as="geometry" />
        </mxCell>
        <mxCell id="DBbBezYdBG6-TNPYQ43t-64" value="0" style="text;html=1;align=center;verticalAlign=middle;resizable=0;points=[];autosize=1;strokeColor=none;fillColor=none;" vertex="1" parent="DBbBezYdBG6-TNPYQ43t-125">
          <mxGeometry x="214" y="430" width="30" height="30" as="geometry" />
        </mxCell>
        <mxCell id="DBbBezYdBG6-TNPYQ43t-65" value="1" style="text;html=1;align=center;verticalAlign=middle;resizable=0;points=[];autosize=1;strokeColor=none;fillColor=none;" vertex="1" parent="DBbBezYdBG6-TNPYQ43t-125">
          <mxGeometry x="287" y="490" width="30" height="30" as="geometry" />
        </mxCell>
        <mxCell id="DBbBezYdBG6-TNPYQ43t-67" value="0" style="text;html=1;align=center;verticalAlign=middle;resizable=0;points=[];autosize=1;strokeColor=none;fillColor=none;" vertex="1" parent="DBbBezYdBG6-TNPYQ43t-125">
          <mxGeometry x="214" y="530" width="30" height="30" as="geometry" />
        </mxCell>
        <mxCell id="DBbBezYdBG6-TNPYQ43t-123" value="" style="group;fillColor=#f5f5f5;fontColor=#333333;strokeColor=#666666;" vertex="1" connectable="0" parent="1">
          <mxGeometry x="65" y="1190" width="470" height="530" as="geometry" />
        </mxCell>
        <mxCell id="DBbBezYdBG6-TNPYQ43t-47" value="" style="group" vertex="1" connectable="0" parent="DBbBezYdBG6-TNPYQ43t-123">
          <mxGeometry x="289" width="181" height="90" as="geometry" />
        </mxCell>
        <mxCell id="DBbBezYdBG6-TNPYQ43t-48" value="&lt;font color=&quot;#ff0000&quot;&gt;LD_XCOOR_REG&lt;/font&gt;" style="rounded=0;whiteSpace=wrap;html=1;" vertex="1" parent="DBbBezYdBG6-TNPYQ43t-47">
          <mxGeometry y="30" width="120" height="60" as="geometry" />
        </mxCell>
        <mxCell id="DBbBezYdBG6-TNPYQ43t-49" value="E_LINEAV" style="text;html=1;align=center;verticalAlign=top;resizable=0;points=[];autosize=1;strokeColor=none;fillColor=none;fontStyle=1;fontColor=#9933FF;labelBackgroundColor=none;labelBorderColor=none;horizontal=1;fontFamily=Helvetica;" vertex="1" parent="DBbBezYdBG6-TNPYQ43t-47">
          <mxGeometry x="76" width="80" height="30" as="geometry" />
        </mxCell>
        <mxCell id="DBbBezYdBG6-TNPYQ43t-51" value="" style="group" vertex="1" connectable="0" parent="DBbBezYdBG6-TNPYQ43t-123">
          <mxGeometry x="289" y="110" width="181" height="90" as="geometry" />
        </mxCell>
        <mxCell id="DBbBezYdBG6-TNPYQ43t-52" value="&lt;font color=&quot;#0000ff&quot;&gt;DRAW_LINE&lt;br&gt;VERTICAL&lt;/font&gt;" style="rounded=0;whiteSpace=wrap;html=1;" vertex="1" parent="DBbBezYdBG6-TNPYQ43t-51">
          <mxGeometry y="30" width="120" height="60" as="geometry" />
        </mxCell>
        <mxCell id="DBbBezYdBG6-TNPYQ43t-53" value="E_DRAWLV" style="text;html=1;align=center;verticalAlign=top;resizable=0;points=[];autosize=1;strokeColor=none;fillColor=none;fontStyle=1;fontColor=#9933FF;labelBackgroundColor=none;labelBorderColor=none;horizontal=1;fontFamily=Helvetica;" vertex="1" parent="DBbBezYdBG6-TNPYQ43t-51">
          <mxGeometry x="71" width="90" height="30" as="geometry" />
        </mxCell>
        <mxCell id="DBbBezYdBG6-TNPYQ43t-54" style="edgeStyle=orthogonalEdgeStyle;rounded=0;orthogonalLoop=1;jettySize=auto;html=1;" edge="1" parent="DBbBezYdBG6-TNPYQ43t-123" source="DBbBezYdBG6-TNPYQ43t-48" target="DBbBezYdBG6-TNPYQ43t-52">
          <mxGeometry relative="1" as="geometry" />
        </mxCell>
        <mxCell id="DBbBezYdBG6-TNPYQ43t-57" style="edgeStyle=orthogonalEdgeStyle;rounded=0;orthogonalLoop=1;jettySize=auto;html=1;entryX=1;entryY=0.5;entryDx=0;entryDy=0;" edge="1" parent="DBbBezYdBG6-TNPYQ43t-123" source="DBbBezYdBG6-TNPYQ43t-56" target="DBbBezYdBG6-TNPYQ43t-52">
          <mxGeometry relative="1" as="geometry">
            <Array as="points">
              <mxPoint x="429" y="270" />
              <mxPoint x="429" y="170" />
            </Array>
          </mxGeometry>
        </mxCell>
        <mxCell id="DBbBezYdBG6-TNPYQ43t-56" value="&lt;b&gt;&lt;font color=&quot;#0000ff&quot;&gt;DONE_FIG&lt;/font&gt;&lt;/b&gt;" style="rhombus;whiteSpace=wrap;html=1;" vertex="1" parent="DBbBezYdBG6-TNPYQ43t-123">
          <mxGeometry x="309" y="230" width="80" height="80" as="geometry" />
        </mxCell>
        <mxCell id="DBbBezYdBG6-TNPYQ43t-55" style="edgeStyle=orthogonalEdgeStyle;rounded=0;orthogonalLoop=1;jettySize=auto;html=1;" edge="1" parent="DBbBezYdBG6-TNPYQ43t-123" source="DBbBezYdBG6-TNPYQ43t-52" target="DBbBezYdBG6-TNPYQ43t-56">
          <mxGeometry relative="1" as="geometry">
            <mxPoint x="349" y="260" as="targetPoint" />
          </mxGeometry>
        </mxCell>
        <mxCell id="DBbBezYdBG6-TNPYQ43t-68" value="0" style="text;html=1;align=center;verticalAlign=middle;resizable=0;points=[];autosize=1;strokeColor=none;fillColor=none;" vertex="1" parent="DBbBezYdBG6-TNPYQ43t-123">
          <mxGeometry x="389" y="238" width="30" height="30" as="geometry" />
        </mxCell>
        <mxCell id="DBbBezYdBG6-TNPYQ43t-70" value="" style="group" vertex="1" connectable="0" parent="DBbBezYdBG6-TNPYQ43t-123">
          <mxGeometry x="115" y="210" width="181" height="90" as="geometry" />
        </mxCell>
        <mxCell id="DBbBezYdBG6-TNPYQ43t-71" value="&lt;font color=&quot;#ff0000&quot;&gt;INCR_TXCOOR&lt;/font&gt;" style="rounded=0;whiteSpace=wrap;html=1;" vertex="1" parent="DBbBezYdBG6-TNPYQ43t-70">
          <mxGeometry y="30" width="120" height="60" as="geometry" />
        </mxCell>
        <mxCell id="DBbBezYdBG6-TNPYQ43t-72" value="E_INCR_X" style="text;html=1;align=center;verticalAlign=top;resizable=0;points=[];autosize=1;strokeColor=none;fillColor=none;fontStyle=1;fontColor=#9933FF;labelBackgroundColor=none;labelBorderColor=none;horizontal=1;fontFamily=Helvetica;" vertex="1" parent="DBbBezYdBG6-TNPYQ43t-70">
          <mxGeometry x="76" width="80" height="30" as="geometry" />
        </mxCell>
        <mxCell id="DBbBezYdBG6-TNPYQ43t-74" style="edgeStyle=orthogonalEdgeStyle;rounded=0;orthogonalLoop=1;jettySize=auto;html=1;" edge="1" parent="DBbBezYdBG6-TNPYQ43t-123" source="DBbBezYdBG6-TNPYQ43t-56" target="DBbBezYdBG6-TNPYQ43t-71">
          <mxGeometry relative="1" as="geometry" />
        </mxCell>
        <mxCell id="DBbBezYdBG6-TNPYQ43t-75" value="" style="group" vertex="1" connectable="0" parent="DBbBezYdBG6-TNPYQ43t-123">
          <mxGeometry x="115" y="320" width="181" height="90" as="geometry" />
        </mxCell>
        <mxCell id="DBbBezYdBG6-TNPYQ43t-76" value="&lt;font color=&quot;#ff0000&quot;&gt;LD_TYCOOR_REG&lt;br&gt;LD_TXCOOR_REG&lt;br&gt;&lt;/font&gt;" style="rounded=0;whiteSpace=wrap;html=1;" vertex="1" parent="DBbBezYdBG6-TNPYQ43t-75">
          <mxGeometry y="30" width="120" height="60" as="geometry" />
        </mxCell>
        <mxCell id="DBbBezYdBG6-TNPYQ43t-77" value="E_LINEAH" style="text;html=1;align=center;verticalAlign=top;resizable=0;points=[];autosize=1;strokeColor=none;fillColor=none;fontStyle=1;fontColor=#9933FF;labelBackgroundColor=none;labelBorderColor=none;horizontal=1;fontFamily=Helvetica;" vertex="1" parent="DBbBezYdBG6-TNPYQ43t-75">
          <mxGeometry x="76" width="80" height="30" as="geometry" />
        </mxCell>
        <mxCell id="DBbBezYdBG6-TNPYQ43t-84" style="edgeStyle=orthogonalEdgeStyle;rounded=0;orthogonalLoop=1;jettySize=auto;html=1;entryX=0;entryY=0.5;entryDx=0;entryDy=0;" edge="1" parent="DBbBezYdBG6-TNPYQ43t-123" source="DBbBezYdBG6-TNPYQ43t-82" target="DBbBezYdBG6-TNPYQ43t-48">
          <mxGeometry relative="1" as="geometry">
            <Array as="points">
              <mxPoint x="55" y="60" />
            </Array>
          </mxGeometry>
        </mxCell>
        <mxCell id="DBbBezYdBG6-TNPYQ43t-85" style="edgeStyle=orthogonalEdgeStyle;rounded=0;orthogonalLoop=1;jettySize=auto;html=1;entryX=0;entryY=0.5;entryDx=0;entryDy=0;" edge="1" parent="DBbBezYdBG6-TNPYQ43t-123" source="DBbBezYdBG6-TNPYQ43t-82" target="DBbBezYdBG6-TNPYQ43t-76">
          <mxGeometry relative="1" as="geometry">
            <Array as="points">
              <mxPoint x="55" y="380" />
            </Array>
          </mxGeometry>
        </mxCell>
        <mxCell id="DBbBezYdBG6-TNPYQ43t-82" value="&lt;b&gt;&lt;font color=&quot;#00cc00&quot;&gt;END_X&lt;/font&gt;&lt;/b&gt;" style="rhombus;whiteSpace=wrap;html=1;" vertex="1" parent="DBbBezYdBG6-TNPYQ43t-123">
          <mxGeometry x="15" y="230" width="80" height="80" as="geometry" />
        </mxCell>
        <mxCell id="DBbBezYdBG6-TNPYQ43t-83" style="edgeStyle=orthogonalEdgeStyle;rounded=0;orthogonalLoop=1;jettySize=auto;html=1;" edge="1" parent="DBbBezYdBG6-TNPYQ43t-123" source="DBbBezYdBG6-TNPYQ43t-71" target="DBbBezYdBG6-TNPYQ43t-82">
          <mxGeometry relative="1" as="geometry" />
        </mxCell>
        <mxCell id="DBbBezYdBG6-TNPYQ43t-86" value="&lt;font color=&quot;#ff0000&quot;&gt;CLR_TCOORY&lt;br&gt;CLR_TCOORX&lt;br&gt;&lt;/font&gt;" style="ellipse;whiteSpace=wrap;html=1;" vertex="1" parent="DBbBezYdBG6-TNPYQ43t-123">
          <mxGeometry y="320" width="110" height="50" as="geometry" />
        </mxCell>
        <mxCell id="DBbBezYdBG6-TNPYQ43t-87" value="" style="group" vertex="1" connectable="0" parent="DBbBezYdBG6-TNPYQ43t-123">
          <mxGeometry x="289" y="320" width="181" height="90" as="geometry" />
        </mxCell>
        <mxCell id="DBbBezYdBG6-TNPYQ43t-88" value="&lt;font color=&quot;#0000ff&quot;&gt;DRAW_LINE&lt;br&gt;&lt;/font&gt;" style="rounded=0;whiteSpace=wrap;html=1;" vertex="1" parent="DBbBezYdBG6-TNPYQ43t-87">
          <mxGeometry y="30" width="120" height="60" as="geometry" />
        </mxCell>
        <mxCell id="DBbBezYdBG6-TNPYQ43t-89" value="E_DRAWLH" style="text;html=1;align=center;verticalAlign=top;resizable=0;points=[];autosize=1;strokeColor=none;fillColor=none;fontStyle=1;fontColor=#9933FF;labelBackgroundColor=none;labelBorderColor=none;horizontal=1;fontFamily=Helvetica;" vertex="1" parent="DBbBezYdBG6-TNPYQ43t-87">
          <mxGeometry x="71" width="90" height="30" as="geometry" />
        </mxCell>
        <mxCell id="DBbBezYdBG6-TNPYQ43t-93" style="edgeStyle=orthogonalEdgeStyle;rounded=0;orthogonalLoop=1;jettySize=auto;html=1;entryX=1;entryY=0.5;entryDx=0;entryDy=0;" edge="1" parent="DBbBezYdBG6-TNPYQ43t-123" source="DBbBezYdBG6-TNPYQ43t-90" target="DBbBezYdBG6-TNPYQ43t-88">
          <mxGeometry relative="1" as="geometry">
            <Array as="points">
              <mxPoint x="429" y="490" />
              <mxPoint x="429" y="380" />
            </Array>
          </mxGeometry>
        </mxCell>
        <mxCell id="DBbBezYdBG6-TNPYQ43t-91" style="edgeStyle=orthogonalEdgeStyle;rounded=0;orthogonalLoop=1;jettySize=auto;html=1;" edge="1" parent="DBbBezYdBG6-TNPYQ43t-123" source="DBbBezYdBG6-TNPYQ43t-76" target="DBbBezYdBG6-TNPYQ43t-88">
          <mxGeometry relative="1" as="geometry" />
        </mxCell>
        <mxCell id="DBbBezYdBG6-TNPYQ43t-92" style="edgeStyle=orthogonalEdgeStyle;rounded=0;orthogonalLoop=1;jettySize=auto;html=1;" edge="1" parent="DBbBezYdBG6-TNPYQ43t-123" source="DBbBezYdBG6-TNPYQ43t-88" target="DBbBezYdBG6-TNPYQ43t-90">
          <mxGeometry relative="1" as="geometry" />
        </mxCell>
        <mxCell id="DBbBezYdBG6-TNPYQ43t-94" value="" style="group" vertex="1" connectable="0" parent="DBbBezYdBG6-TNPYQ43t-123">
          <mxGeometry x="115" y="430" width="181" height="90" as="geometry" />
        </mxCell>
        <mxCell id="DBbBezYdBG6-TNPYQ43t-95" value="&lt;font color=&quot;#ff0000&quot;&gt;INCR_TYCOOR&lt;/font&gt;" style="rounded=0;whiteSpace=wrap;html=1;" vertex="1" parent="DBbBezYdBG6-TNPYQ43t-94">
          <mxGeometry y="30" width="120" height="60" as="geometry" />
        </mxCell>
        <mxCell id="DBbBezYdBG6-TNPYQ43t-96" value="E_INCR_Y" style="text;html=1;align=center;verticalAlign=top;resizable=0;points=[];autosize=1;strokeColor=none;fillColor=none;fontStyle=1;fontColor=#9933FF;labelBackgroundColor=none;labelBorderColor=none;horizontal=1;fontFamily=Helvetica;" vertex="1" parent="DBbBezYdBG6-TNPYQ43t-94">
          <mxGeometry x="76" width="80" height="30" as="geometry" />
        </mxCell>
        <mxCell id="DBbBezYdBG6-TNPYQ43t-98" value="1" style="text;html=1;align=center;verticalAlign=middle;resizable=0;points=[];autosize=1;strokeColor=none;fillColor=none;" vertex="1" parent="DBbBezYdBG6-TNPYQ43t-123">
          <mxGeometry x="289" y="238" width="30" height="30" as="geometry" />
        </mxCell>
        <mxCell id="DBbBezYdBG6-TNPYQ43t-99" value="1" style="text;html=1;align=center;verticalAlign=middle;resizable=0;points=[];autosize=1;strokeColor=none;fillColor=none;" vertex="1" parent="DBbBezYdBG6-TNPYQ43t-123">
          <mxGeometry x="289" y="460" width="30" height="30" as="geometry" />
        </mxCell>
        <mxCell id="DBbBezYdBG6-TNPYQ43t-100" value="0" style="text;html=1;align=center;verticalAlign=middle;resizable=0;points=[];autosize=1;strokeColor=none;fillColor=none;" vertex="1" parent="DBbBezYdBG6-TNPYQ43t-123">
          <mxGeometry x="389" y="460" width="30" height="30" as="geometry" />
        </mxCell>
        <mxCell id="DBbBezYdBG6-TNPYQ43t-102" style="edgeStyle=orthogonalEdgeStyle;rounded=0;orthogonalLoop=1;jettySize=auto;html=1;entryX=0;entryY=0.75;entryDx=0;entryDy=0;" edge="1" parent="DBbBezYdBG6-TNPYQ43t-123" source="DBbBezYdBG6-TNPYQ43t-101" target="DBbBezYdBG6-TNPYQ43t-76">
          <mxGeometry relative="1" as="geometry">
            <Array as="points">
              <mxPoint x="55" y="395" />
            </Array>
          </mxGeometry>
        </mxCell>
        <mxCell id="DBbBezYdBG6-TNPYQ43t-101" value="&lt;b&gt;&lt;font color=&quot;#00cc00&quot;&gt;END_Y&lt;/font&gt;&lt;/b&gt;" style="rhombus;whiteSpace=wrap;html=1;" vertex="1" parent="DBbBezYdBG6-TNPYQ43t-123">
          <mxGeometry x="15" y="450" width="80" height="80" as="geometry" />
        </mxCell>
        <mxCell id="DBbBezYdBG6-TNPYQ43t-103" style="edgeStyle=orthogonalEdgeStyle;rounded=0;orthogonalLoop=1;jettySize=auto;html=1;" edge="1" parent="DBbBezYdBG6-TNPYQ43t-123" source="DBbBezYdBG6-TNPYQ43t-95" target="DBbBezYdBG6-TNPYQ43t-101">
          <mxGeometry relative="1" as="geometry" />
        </mxCell>
        <mxCell id="DBbBezYdBG6-TNPYQ43t-120" value="0" style="text;html=1;align=center;verticalAlign=middle;resizable=0;points=[];autosize=1;strokeColor=none;fillColor=none;" vertex="1" parent="DBbBezYdBG6-TNPYQ43t-123">
          <mxGeometry x="30" y="428" width="30" height="30" as="geometry" />
        </mxCell>
        <mxCell id="DBbBezYdBG6-TNPYQ43t-121" value="0" style="text;html=1;align=center;verticalAlign=middle;resizable=0;points=[];autosize=1;strokeColor=none;fillColor=none;" vertex="1" parent="DBbBezYdBG6-TNPYQ43t-123">
          <mxGeometry x="15" y="200" width="30" height="30" as="geometry" />
        </mxCell>
        <mxCell id="DBbBezYdBG6-TNPYQ43t-122" value="1" style="text;html=1;align=center;verticalAlign=middle;resizable=0;points=[];autosize=1;strokeColor=none;fillColor=none;" vertex="1" parent="DBbBezYdBG6-TNPYQ43t-123">
          <mxGeometry x="15" y="290" width="30" height="30" as="geometry" />
        </mxCell>
        <mxCell id="DBbBezYdBG6-TNPYQ43t-5" style="edgeStyle=orthogonalEdgeStyle;rounded=0;orthogonalLoop=1;jettySize=auto;html=1;" edge="1" parent="1" source="DBbBezYdBG6-TNPYQ43t-1" target="DBbBezYdBG6-TNPYQ43t-3">
          <mxGeometry relative="1" as="geometry" />
        </mxCell>
        <mxCell id="DBbBezYdBG6-TNPYQ43t-7" style="edgeStyle=orthogonalEdgeStyle;rounded=0;orthogonalLoop=1;jettySize=auto;html=1;entryX=0;entryY=0.75;entryDx=0;entryDy=0;" edge="1" parent="1" source="DBbBezYdBG6-TNPYQ43t-3" target="DBbBezYdBG6-TNPYQ43t-1">
          <mxGeometry relative="1" as="geometry">
            <Array as="points">
              <mxPoint x="334" y="310" />
              <mxPoint x="334" y="225" />
            </Array>
          </mxGeometry>
        </mxCell>
        <mxCell id="DBbBezYdBG6-TNPYQ43t-10" style="edgeStyle=orthogonalEdgeStyle;rounded=0;orthogonalLoop=1;jettySize=auto;html=1;entryX=0;entryY=0.5;entryDx=0;entryDy=0;" edge="1" parent="1" source="DBbBezYdBG6-TNPYQ43t-3" target="DBbBezYdBG6-TNPYQ43t-8">
          <mxGeometry relative="1" as="geometry" />
        </mxCell>
        <mxCell id="DBbBezYdBG6-TNPYQ43t-3" value="&lt;b&gt;&lt;font color=&quot;#0000ff&quot;&gt;GRID_OP&lt;/font&gt;&lt;/b&gt;" style="rhombus;whiteSpace=wrap;html=1;" vertex="1" parent="1">
          <mxGeometry x="374" y="270" width="80" height="80" as="geometry" />
        </mxCell>
        <mxCell id="DBbBezYdBG6-TNPYQ43t-13" style="edgeStyle=orthogonalEdgeStyle;rounded=0;orthogonalLoop=1;jettySize=auto;html=1;" edge="1" parent="1" source="DBbBezYdBG6-TNPYQ43t-8" target="DBbBezYdBG6-TNPYQ43t-12">
          <mxGeometry relative="1" as="geometry" />
        </mxCell>
        <mxCell id="DBbBezYdBG6-TNPYQ43t-8" value="&lt;font color=&quot;#0000ff&quot;&gt;DEL_SCREEN&lt;/font&gt;" style="rounded=0;whiteSpace=wrap;html=1;" vertex="1" parent="1">
          <mxGeometry x="600" y="280" width="120" height="60" as="geometry" />
        </mxCell>
        <mxCell id="DBbBezYdBG6-TNPYQ43t-9" value="&lt;font color=&quot;#ff0000&quot;&gt;PR_DELSCREEN&lt;/font&gt;" style="ellipse;whiteSpace=wrap;html=1;" vertex="1" parent="1">
          <mxGeometry x="474" y="285" width="110" height="50" as="geometry" />
        </mxCell>
        <mxCell id="DBbBezYdBG6-TNPYQ43t-11" value="E_W8_DEL" style="text;html=1;align=center;verticalAlign=top;resizable=0;points=[];autosize=1;strokeColor=none;fillColor=none;fontStyle=1;fontColor=#9933FF;labelBackgroundColor=none;labelBorderColor=none;horizontal=1;fontFamily=Helvetica;" vertex="1" parent="1">
          <mxGeometry x="665" y="255" width="90" height="30" as="geometry" />
        </mxCell>
        <mxCell id="DBbBezYdBG6-TNPYQ43t-14" style="edgeStyle=orthogonalEdgeStyle;rounded=0;orthogonalLoop=1;jettySize=auto;html=1;entryX=1;entryY=0.5;entryDx=0;entryDy=0;" edge="1" parent="1" source="DBbBezYdBG6-TNPYQ43t-12" target="DBbBezYdBG6-TNPYQ43t-8">
          <mxGeometry relative="1" as="geometry">
            <Array as="points">
              <mxPoint x="740" y="410" />
              <mxPoint x="740" y="310" />
            </Array>
          </mxGeometry>
        </mxCell>
        <mxCell id="DBbBezYdBG6-TNPYQ43t-18" style="edgeStyle=orthogonalEdgeStyle;rounded=0;orthogonalLoop=1;jettySize=auto;html=1;" edge="1" parent="1" source="DBbBezYdBG6-TNPYQ43t-19" target="DBbBezYdBG6-TNPYQ43t-15">
          <mxGeometry relative="1" as="geometry" />
        </mxCell>
        <mxCell id="DBbBezYdBG6-TNPYQ43t-12" value="&lt;b&gt;&lt;font color=&quot;#0000ff&quot;&gt;DONE_DEL&lt;/font&gt;&lt;/b&gt;" style="rhombus;whiteSpace=wrap;html=1;" vertex="1" parent="1">
          <mxGeometry x="620" y="370" width="80" height="80" as="geometry" />
        </mxCell>
        <mxCell id="DBbBezYdBG6-TNPYQ43t-17" value="" style="group" vertex="1" connectable="0" parent="1">
          <mxGeometry x="354" y="350" width="171" height="90" as="geometry" />
        </mxCell>
        <mxCell id="DBbBezYdBG6-TNPYQ43t-15" value="&lt;font color=&quot;#ff0000&quot;&gt;CLR_TCOORX&lt;br&gt;CLR_TCOORY&lt;/font&gt;" style="rounded=0;whiteSpace=wrap;html=1;" vertex="1" parent="DBbBezYdBG6-TNPYQ43t-17">
          <mxGeometry y="30" width="120" height="60" as="geometry" />
        </mxCell>
        <mxCell id="DBbBezYdBG6-TNPYQ43t-16" value="E_BEGIN_ROW" style="text;html=1;align=center;verticalAlign=top;resizable=0;points=[];autosize=1;strokeColor=none;fillColor=none;fontStyle=1;fontColor=#9933FF;labelBackgroundColor=none;labelBorderColor=none;horizontal=1;fontFamily=Helvetica;" vertex="1" parent="DBbBezYdBG6-TNPYQ43t-17">
          <mxGeometry x="61" width="110" height="30" as="geometry" />
        </mxCell>
        <mxCell id="DBbBezYdBG6-TNPYQ43t-20" value="" style="edgeStyle=orthogonalEdgeStyle;rounded=0;orthogonalLoop=1;jettySize=auto;html=1;" edge="1" parent="1" source="DBbBezYdBG6-TNPYQ43t-12" target="DBbBezYdBG6-TNPYQ43t-19">
          <mxGeometry relative="1" as="geometry">
            <mxPoint x="620" y="410" as="sourcePoint" />
            <mxPoint x="474" y="410" as="targetPoint" />
          </mxGeometry>
        </mxCell>
        <mxCell id="DBbBezYdBG6-TNPYQ43t-19" value="&lt;font color=&quot;#ff0000&quot;&gt;PR_CUAD&lt;/font&gt;" style="ellipse;whiteSpace=wrap;html=1;" vertex="1" parent="1">
          <mxGeometry x="490" y="385" width="110" height="50" as="geometry" />
        </mxCell>
        <mxCell id="DBbBezYdBG6-TNPYQ43t-24" style="edgeStyle=orthogonalEdgeStyle;rounded=0;orthogonalLoop=1;jettySize=auto;html=1;" edge="1" parent="1" source="DBbBezYdBG6-TNPYQ43t-15" target="DBbBezYdBG6-TNPYQ43t-22">
          <mxGeometry relative="1" as="geometry" />
        </mxCell>
        <mxCell id="DBbBezYdBG6-TNPYQ43t-28" value="" style="group" vertex="1" connectable="0" parent="1">
          <mxGeometry x="354" y="150" width="156" height="90" as="geometry" />
        </mxCell>
        <mxCell id="DBbBezYdBG6-TNPYQ43t-1" value="" style="rounded=0;whiteSpace=wrap;html=1;" vertex="1" parent="DBbBezYdBG6-TNPYQ43t-28">
          <mxGeometry y="30" width="120" height="60" as="geometry" />
        </mxCell>
        <mxCell id="DBbBezYdBG6-TNPYQ43t-2" value="E_W8_OP" style="text;html=1;align=center;verticalAlign=top;resizable=0;points=[];autosize=1;strokeColor=none;fillColor=none;fontStyle=1;fontColor=#9933FF;labelBackgroundColor=none;labelBorderColor=none;horizontal=1;fontFamily=Helvetica;" vertex="1" parent="DBbBezYdBG6-TNPYQ43t-28">
          <mxGeometry x="76" width="80" height="30" as="geometry" />
        </mxCell>
        <mxCell id="DBbBezYdBG6-TNPYQ43t-50" style="edgeStyle=orthogonalEdgeStyle;rounded=0;orthogonalLoop=1;jettySize=auto;html=1;" edge="1" parent="1" source="DBbBezYdBG6-TNPYQ43t-40" target="DBbBezYdBG6-TNPYQ43t-48">
          <mxGeometry relative="1" as="geometry" />
        </mxCell>
        <mxCell id="DBbBezYdBG6-TNPYQ43t-58" value="0" style="text;html=1;align=center;verticalAlign=middle;resizable=0;points=[];autosize=1;strokeColor=none;fillColor=none;" vertex="1" parent="1">
          <mxGeometry x="344" y="280" width="30" height="30" as="geometry" />
        </mxCell>
        <mxCell id="DBbBezYdBG6-TNPYQ43t-59" value="1" style="text;html=1;align=center;verticalAlign=middle;resizable=0;points=[];autosize=1;strokeColor=none;fillColor=none;" vertex="1" parent="1">
          <mxGeometry x="444" y="280" width="30" height="30" as="geometry" />
        </mxCell>
        <mxCell id="DBbBezYdBG6-TNPYQ43t-60" value="0" style="text;html=1;align=center;verticalAlign=middle;resizable=0;points=[];autosize=1;strokeColor=none;fillColor=none;" vertex="1" parent="1">
          <mxGeometry x="700" y="380" width="30" height="30" as="geometry" />
        </mxCell>
        <mxCell id="DBbBezYdBG6-TNPYQ43t-61" value="1" style="text;html=1;align=center;verticalAlign=middle;resizable=0;points=[];autosize=1;strokeColor=none;fillColor=none;" vertex="1" parent="1">
          <mxGeometry x="600" y="380" width="30" height="30" as="geometry" />
        </mxCell>
        <mxCell id="DBbBezYdBG6-TNPYQ43t-66" value="1" style="text;html=1;align=center;verticalAlign=middle;resizable=0;points=[];autosize=1;strokeColor=none;fillColor=none;" vertex="1" parent="1">
          <mxGeometry x="414" y="1060" width="30" height="30" as="geometry" />
        </mxCell>
        <mxCell id="DBbBezYdBG6-TNPYQ43t-78" value="&lt;font color=&quot;#ff0000&quot;&gt;PR_LINEA&lt;br&gt;CLR_TCOORX&lt;br&gt;&lt;/font&gt;" style="ellipse;whiteSpace=wrap;html=1;" vertex="1" parent="1">
          <mxGeometry x="359" y="1110" width="110" height="50" as="geometry" />
        </mxCell>
        <mxCell id="DBbBezYdBG6-TNPYQ43t-107" style="edgeStyle=orthogonalEdgeStyle;rounded=0;orthogonalLoop=1;jettySize=auto;html=1;" edge="1" parent="1" source="DBbBezYdBG6-TNPYQ43t-129" target="DBbBezYdBG6-TNPYQ43t-105">
          <mxGeometry relative="1" as="geometry" />
        </mxCell>
        <mxCell id="DBbBezYdBG6-TNPYQ43t-104" value="" style="group" vertex="1" connectable="0" parent="1">
          <mxGeometry x="60" y="1891" width="181" height="90" as="geometry" />
        </mxCell>
        <mxCell id="DBbBezYdBG6-TNPYQ43t-105" value="&lt;font color=&quot;#0000ff&quot;&gt;DRAW_TRIA&lt;/font&gt;" style="rounded=0;whiteSpace=wrap;html=1;" vertex="1" parent="DBbBezYdBG6-TNPYQ43t-104">
          <mxGeometry y="30" width="120" height="60" as="geometry" />
        </mxCell>
        <mxCell id="DBbBezYdBG6-TNPYQ43t-106" value="E_DRAWTRIA" style="text;html=1;align=center;verticalAlign=top;resizable=0;points=[];autosize=1;strokeColor=none;fillColor=none;fontStyle=1;fontColor=#9933FF;labelBackgroundColor=none;labelBorderColor=none;horizontal=1;fontFamily=Helvetica;" vertex="1" parent="DBbBezYdBG6-TNPYQ43t-104">
          <mxGeometry x="66" width="100" height="30" as="geometry" />
        </mxCell>
        <mxCell id="DBbBezYdBG6-TNPYQ43t-108" value="" style="group" vertex="1" connectable="0" parent="1">
          <mxGeometry x="354" y="2031" width="181" height="90" as="geometry" />
        </mxCell>
        <mxCell id="DBbBezYdBG6-TNPYQ43t-109" value="&lt;font color=&quot;#ff0000&quot;&gt;DONE_GRID&lt;/font&gt;" style="rounded=0;whiteSpace=wrap;html=1;" vertex="1" parent="DBbBezYdBG6-TNPYQ43t-108">
          <mxGeometry y="30" width="120" height="60" as="geometry" />
        </mxCell>
        <mxCell id="DBbBezYdBG6-TNPYQ43t-110" value="E_DONE_GRID" style="text;html=1;align=center;verticalAlign=top;resizable=0;points=[];autosize=1;strokeColor=none;fillColor=none;fontStyle=1;fontColor=#9933FF;labelBackgroundColor=none;labelBorderColor=none;horizontal=1;fontFamily=Helvetica;" vertex="1" parent="DBbBezYdBG6-TNPYQ43t-108">
          <mxGeometry x="61" width="110" height="30" as="geometry" />
        </mxCell>
        <mxCell id="DBbBezYdBG6-TNPYQ43t-112" style="edgeStyle=orthogonalEdgeStyle;rounded=0;orthogonalLoop=1;jettySize=auto;html=1;" edge="1" parent="1" source="DBbBezYdBG6-TNPYQ43t-111" target="DBbBezYdBG6-TNPYQ43t-109">
          <mxGeometry relative="1" as="geometry" />
        </mxCell>
        <mxCell id="DBbBezYdBG6-TNPYQ43t-114" style="edgeStyle=orthogonalEdgeStyle;rounded=0;orthogonalLoop=1;jettySize=auto;html=1;entryX=1;entryY=0.25;entryDx=0;entryDy=0;" edge="1" parent="1" source="DBbBezYdBG6-TNPYQ43t-111" target="DBbBezYdBG6-TNPYQ43t-105">
          <mxGeometry relative="1" as="geometry">
            <Array as="points">
              <mxPoint x="414" y="1891" />
              <mxPoint x="277" y="1891" />
              <mxPoint x="277" y="1936" />
            </Array>
          </mxGeometry>
        </mxCell>
        <mxCell id="DBbBezYdBG6-TNPYQ43t-111" value="&lt;b&gt;&lt;font color=&quot;#0000ff&quot;&gt;DONE_FIG&lt;/font&gt;&lt;/b&gt;" style="rhombus;whiteSpace=wrap;html=1;" vertex="1" parent="1">
          <mxGeometry x="374" y="1911" width="80" height="80" as="geometry" />
        </mxCell>
        <mxCell id="DBbBezYdBG6-TNPYQ43t-113" style="edgeStyle=orthogonalEdgeStyle;rounded=0;orthogonalLoop=1;jettySize=auto;html=1;" edge="1" parent="1" source="DBbBezYdBG6-TNPYQ43t-105" target="DBbBezYdBG6-TNPYQ43t-111">
          <mxGeometry relative="1" as="geometry" />
        </mxCell>
        <mxCell id="DBbBezYdBG6-TNPYQ43t-115" value="0" style="text;html=1;align=center;verticalAlign=middle;resizable=0;points=[];autosize=1;strokeColor=none;fillColor=none;" vertex="1" parent="1">
          <mxGeometry x="424" y="1890" width="30" height="30" as="geometry" />
        </mxCell>
        <mxCell id="DBbBezYdBG6-TNPYQ43t-116" value="1" style="text;html=1;align=center;verticalAlign=middle;resizable=0;points=[];autosize=1;strokeColor=none;fillColor=none;" vertex="1" parent="1">
          <mxGeometry x="424" y="1991" width="30" height="30" as="geometry" />
        </mxCell>
        <mxCell id="DBbBezYdBG6-TNPYQ43t-117" value="&lt;font color=&quot;#9933ff&quot;&gt;E_W8_OP&lt;/font&gt;" style="text;html=1;align=center;verticalAlign=top;resizable=0;points=[];autosize=1;strokeColor=#666666;fillColor=#f5f5f5;fontStyle=1;fontColor=#333333;labelBackgroundColor=none;labelBorderColor=none;horizontal=1;fontFamily=Helvetica;" vertex="1" parent="1">
          <mxGeometry x="374" y="2151" width="80" height="30" as="geometry" />
        </mxCell>
        <mxCell id="DBbBezYdBG6-TNPYQ43t-118" style="edgeStyle=orthogonalEdgeStyle;rounded=0;orthogonalLoop=1;jettySize=auto;html=1;" edge="1" parent="1" source="DBbBezYdBG6-TNPYQ43t-109" target="DBbBezYdBG6-TNPYQ43t-117">
          <mxGeometry relative="1" as="geometry" />
        </mxCell>
        <mxCell id="DBbBezYdBG6-TNPYQ43t-119" value="1" style="text;html=1;align=center;verticalAlign=middle;resizable=0;points=[];autosize=1;strokeColor=none;fillColor=none;" vertex="1" parent="1">
          <mxGeometry x="95" y="1718" width="30" height="30" as="geometry" />
        </mxCell>
        <mxCell id="DBbBezYdBG6-TNPYQ43t-97" style="edgeStyle=orthogonalEdgeStyle;rounded=0;orthogonalLoop=1;jettySize=auto;html=1;entryX=1;entryY=0.5;entryDx=0;entryDy=0;" edge="1" parent="1" source="DBbBezYdBG6-TNPYQ43t-90" target="DBbBezYdBG6-TNPYQ43t-95">
          <mxGeometry relative="1" as="geometry" />
        </mxCell>
        <mxCell id="DBbBezYdBG6-TNPYQ43t-90" value="&lt;b&gt;&lt;font color=&quot;#0000ff&quot;&gt;DONE_FIG&lt;/font&gt;&lt;/b&gt;" style="rhombus;whiteSpace=wrap;html=1;" vertex="1" parent="1">
          <mxGeometry x="374" y="1640" width="80" height="80" as="geometry" />
        </mxCell>
        <mxCell id="DBbBezYdBG6-TNPYQ43t-126" value="Dibuja el grid de cuadrados 10 x 10" style="text;html=1;align=center;verticalAlign=middle;resizable=0;points=[];autosize=1;strokeColor=none;fillColor=none;" vertex="1" parent="1">
          <mxGeometry x="540" y="620" width="210" height="30" as="geometry" />
        </mxCell>
        <mxCell id="DBbBezYdBG6-TNPYQ43t-127" value="Dibuja 11 lineas verticales y horizontales" style="text;html=1;align=center;verticalAlign=middle;resizable=0;points=[];autosize=1;strokeColor=none;fillColor=none;" vertex="1" parent="1">
          <mxGeometry x="535" y="1300" width="240" height="30" as="geometry" />
        </mxCell>
        <mxCell id="DBbBezYdBG6-TNPYQ43t-128" value="" style="group" vertex="1" connectable="0" parent="1">
          <mxGeometry x="60" y="1800" width="181" height="90" as="geometry" />
        </mxCell>
        <mxCell id="DBbBezYdBG6-TNPYQ43t-130" value="E_00_TRIA" style="text;html=1;align=center;verticalAlign=top;resizable=0;points=[];autosize=1;strokeColor=none;fillColor=none;fontStyle=1;fontColor=#9933FF;labelBackgroundColor=none;labelBorderColor=none;horizontal=1;fontFamily=Helvetica;" vertex="1" parent="DBbBezYdBG6-TNPYQ43t-128">
          <mxGeometry x="71" width="90" height="30" as="geometry" />
        </mxCell>
        <mxCell id="DBbBezYdBG6-TNPYQ43t-129" value="&lt;font color=&quot;#ff0000&quot;&gt;LD_XCOOR_REG&lt;br&gt;LD_YCOOR_REG&lt;/font&gt;" style="rounded=0;whiteSpace=wrap;html=1;" vertex="1" parent="DBbBezYdBG6-TNPYQ43t-128">
          <mxGeometry y="30" width="120" height="60" as="geometry" />
        </mxCell>
        <mxCell id="DBbBezYdBG6-TNPYQ43t-131" value="" style="edgeStyle=orthogonalEdgeStyle;rounded=0;orthogonalLoop=1;jettySize=auto;html=1;" edge="1" parent="1" source="DBbBezYdBG6-TNPYQ43t-101" target="DBbBezYdBG6-TNPYQ43t-129">
          <mxGeometry relative="1" as="geometry">
            <mxPoint x="120" y="1720" as="sourcePoint" />
            <mxPoint x="120" y="1881" as="targetPoint" />
          </mxGeometry>
        </mxCell>
        <mxCell id="DBbBezYdBG6-TNPYQ43t-132" value="&lt;font color=&quot;#ff0000&quot;&gt;CLR_TCOORY&lt;br&gt;CLR_TCOORX&lt;br&gt;&lt;/font&gt;" style="ellipse;whiteSpace=wrap;html=1;" vertex="1" parent="1">
          <mxGeometry x="65" y="1750" width="110" height="50" as="geometry" />
        </mxCell>
      </root>
    </mxGraphModel>
  </diagram>
</mxfile>
